<svg width="1255" height="225" viewBox="0 0 1255 225" fill="none" xmlns="http://www.w3.org/2000/svg">
<path d="M97.9475 24.7139L67.4162 135.692C66.0109 140.8 58.2812 139.81 58.2812 134.522V19.6356C58.2812 8.79116 67.3145 0 78.4576 0C91.7224 0 101.378 12.2438 97.9475 24.7139Z" fill="white"/>
<path d="M153.142 81.3776L81.5646 148.144C77.8263 151.631 72.0799 147.163 74.6197 142.744L123.248 58.1332C129.061 48.0184 142.58 45.3551 151.826 52.5031C161.107 59.6776 161.73 73.3664 153.142 81.3776Z" fill="white"/>
<path d="M144.084 165.96L89.7654 165.96C84.9666 165.96 83.4395 159.283 87.7316 157.067L136.315 131.993C147.865 126.032 161.454 134.701 161.454 148.03C161.454 157.933 153.677 165.96 144.084 165.96Z" fill="white"/>
<path fill-rule="evenodd" clip-rule="evenodd" d="M15.7014 6.86226e-07C24.3706 3.07234e-07 31.3984 7.02864 31.3984 15.6989L31.3984 208.571C31.3984 217.241 24.3706 224.27 15.7014 224.27C7.03218 224.27 0.00438114 217.241 0.00438076 208.571L0.00437233 15.6989C0.00437195 7.02864 7.03217 1.06522e-06 15.7014 6.86226e-07Z" fill="white"/>
<path fill-rule="evenodd" clip-rule="evenodd" d="M161.461 208.572C161.461 217.242 154.433 224.271 145.764 224.271L15.7028 224.271C7.0336 224.271 0.00579834 217.242 0.00579834 208.572C0.00579834 199.902 7.0336 192.873 15.7028 192.873L145.764 192.873C154.433 192.873 161.461 199.902 161.461 208.572Z" fill="white"/>
<path d="M231.785 178.478V65.8831H252.182V161.38H301.772V178.478H231.785ZM318.596 178.478V94.0319H338.498V178.478H318.596ZM328.602 82.0467C325.45 82.0467 322.737 81.0021 320.465 78.9129C318.192 76.7871 317.056 74.2398 317.056 71.271C317.056 68.2655 318.192 65.7182 320.465 63.629C322.737 61.5032 325.45 60.4403 328.602 60.4403C331.79 60.4403 334.503 61.5032 336.738 63.629C339.011 65.7182 340.147 68.2655 340.147 71.271C340.147 74.2398 339.011 76.7871 336.738 78.9129C334.503 81.0021 331.79 82.0467 328.602 82.0467ZM395.689 211.905C388.542 211.905 382.402 210.934 377.271 208.991C372.14 207.085 368.016 204.52 364.901 201.294C361.786 198.069 359.623 194.495 358.414 190.573L376.336 186.23C377.143 187.88 378.316 189.511 379.855 191.123C381.394 192.773 383.465 194.129 386.068 195.192C388.706 196.291 392.023 196.841 396.019 196.841C401.663 196.841 406.336 195.467 410.038 192.718C413.74 190.005 415.591 185.534 415.591 179.303V163.304H414.601C413.575 165.357 412.072 167.464 410.093 169.627C408.15 171.789 405.566 173.604 402.341 175.07C399.152 176.536 395.139 177.269 390.301 177.269C383.813 177.269 377.931 175.748 372.653 172.706C367.412 169.627 363.233 165.045 360.118 158.961C357.039 152.84 355.5 145.18 355.5 135.98C355.5 126.707 357.039 118.882 360.118 112.505C363.233 106.09 367.43 101.234 372.708 97.9354C377.986 94.6 383.868 92.9324 390.356 92.9324C395.304 92.9324 399.372 93.7754 402.561 95.4614C405.786 97.1107 408.352 99.1082 410.258 101.454C412.164 103.763 413.612 105.944 414.601 107.996H415.701V94.0319H435.328V179.853C435.328 187.073 433.605 193.047 430.16 197.776C426.715 202.504 422.005 206.041 416.031 208.386C410.056 210.732 403.276 211.905 395.689 211.905ZM395.854 161.655C400.069 161.655 403.661 160.629 406.629 158.576C409.598 156.524 411.852 153.573 413.392 149.725C414.931 145.876 415.701 141.258 415.701 135.87C415.701 130.556 414.931 125.901 413.392 121.906C411.889 117.911 409.653 114.814 406.684 112.615C403.752 110.379 400.142 109.261 395.854 109.261C391.419 109.261 387.717 110.415 384.748 112.724C381.779 115.034 379.543 118.204 378.041 122.236C376.538 126.231 375.787 130.776 375.787 135.87C375.787 141.038 376.538 145.565 378.041 149.45C379.58 153.298 381.834 156.304 384.803 158.466C387.808 160.592 391.492 161.655 395.854 161.655ZM475.627 128.998V178.478H455.725V65.8831H475.187V108.381H476.177C478.156 103.616 481.216 99.8596 485.358 97.1107C489.536 94.3251 494.851 92.9324 501.302 92.9324C507.166 92.9324 512.279 94.1602 516.64 96.6159C521.002 99.0716 524.374 102.663 526.756 107.392C529.175 112.12 530.385 117.892 530.385 124.71V178.478H510.483V127.788C510.483 122.107 509.017 117.691 506.085 114.539C503.189 111.35 499.121 109.756 493.88 109.756C490.361 109.756 487.209 110.525 484.423 112.065C481.674 113.567 479.512 115.748 477.936 118.607C476.397 121.466 475.627 124.93 475.627 128.998ZM592.84 94.0319V109.426H544.294V94.0319H592.84ZM556.28 73.8H576.182V153.078C576.182 155.754 576.585 157.807 577.391 159.236C578.234 160.629 579.334 161.582 580.69 162.095C582.046 162.608 583.549 162.864 585.198 162.864C586.444 162.864 587.581 162.773 588.607 162.59C589.67 162.406 590.476 162.241 591.026 162.095L594.379 177.654C593.317 178.02 591.796 178.423 589.816 178.863C587.874 179.303 585.491 179.56 582.669 179.633C577.684 179.779 573.195 179.028 569.2 177.379C565.204 175.693 562.034 173.09 559.688 169.572C557.379 166.053 556.243 161.655 556.28 156.377V73.8ZM656.436 178.478V65.8831H694.481C703.314 65.8831 710.534 67.4775 716.142 70.6662C721.787 73.8183 725.965 78.0883 728.677 83.4761C731.389 88.864 732.746 94.8749 732.746 101.509C732.746 108.143 731.389 114.172 728.677 119.597C726.002 125.021 721.86 129.346 716.252 132.572C710.644 135.76 703.461 137.355 694.701 137.355H667.432V125.259H694.261C700.309 125.259 705.165 124.215 708.83 122.126C712.495 120.037 715.153 117.214 716.802 113.659C718.488 110.067 719.331 106.017 719.331 101.509C719.331 97.0007 718.488 92.969 716.802 89.4138C715.153 85.8585 712.477 83.073 708.775 81.0571C705.073 79.0046 700.162 77.9783 694.041 77.9783H670.071V178.478H656.436ZM752.95 178.478V94.0319H765.485V106.787H766.365C767.904 102.609 770.69 99.2182 774.721 96.6159C778.753 94.0136 783.298 92.7124 788.356 92.7124C789.309 92.7124 790.5 92.7308 791.93 92.7674C793.359 92.8041 794.44 92.8591 795.173 92.9324V106.127C794.733 106.017 793.725 105.852 792.149 105.632C790.61 105.376 788.979 105.247 787.256 105.247C783.151 105.247 779.486 106.109 776.261 107.831C773.072 109.517 770.543 111.863 768.674 114.869C766.841 117.837 765.925 121.228 765.925 125.04V178.478H752.95ZM842.289 180.238C834.666 180.238 827.977 178.423 822.222 174.795C816.505 171.166 812.033 166.09 808.808 159.566C805.619 153.042 804.025 145.418 804.025 136.695C804.025 127.898 805.619 120.22 808.808 113.659C812.033 107.098 816.505 102.004 822.222 98.3752C827.977 94.7466 834.666 92.9324 842.289 92.9324C849.913 92.9324 856.584 94.7466 862.301 98.3752C868.056 102.004 872.527 107.098 875.716 113.659C878.942 120.22 880.554 127.898 880.554 136.695C880.554 145.418 878.942 153.042 875.716 159.566C872.527 166.09 868.056 171.166 862.301 174.795C856.584 178.423 849.913 180.238 842.289 180.238ZM842.289 168.582C848.08 168.582 852.845 167.098 856.584 164.129C860.322 161.16 863.089 157.257 864.885 152.419C866.681 147.581 867.579 142.339 867.579 136.695C867.579 131.051 866.681 125.791 864.885 120.916C863.089 116.041 860.322 112.101 856.584 109.096C852.845 106.09 848.08 104.588 842.289 104.588C836.498 104.588 831.734 106.09 827.995 109.096C824.257 112.101 821.489 116.041 819.693 120.916C817.897 125.791 817 131.051 817 136.695C817 142.339 817.897 147.581 819.693 152.419C821.489 157.257 824.257 161.16 827.995 164.129C831.734 167.098 836.498 168.582 842.289 168.582ZM937.085 94.0319V105.028H893.323V94.0319H937.085ZM906.078 73.8H919.053V154.288C919.053 157.953 919.584 160.702 920.647 162.535C921.747 164.331 923.139 165.54 924.825 166.163C926.548 166.75 928.362 167.043 930.268 167.043C931.698 167.043 932.87 166.97 933.787 166.823C934.703 166.64 935.436 166.493 935.986 166.383L938.625 178.038C937.745 178.368 936.517 178.698 934.941 179.028C933.365 179.395 931.368 179.578 928.949 179.578C925.283 179.578 921.692 178.79 918.173 177.214C914.691 175.638 911.796 173.237 909.486 170.012C907.214 166.786 906.078 162.718 906.078 157.807V73.8ZM990.002 180.238C982.378 180.238 975.689 178.423 969.935 174.795C964.217 171.166 959.746 166.09 956.52 159.566C953.331 153.042 951.737 145.418 951.737 136.695C951.737 127.898 953.331 120.22 956.52 113.659C959.746 107.098 964.217 102.004 969.935 98.3752C975.689 94.7466 982.378 92.9324 990.002 92.9324C997.625 92.9324 1004.3 94.7466 1010.01 98.3752C1015.77 102.004 1020.24 107.098 1023.43 113.659C1026.65 120.22 1028.27 127.898 1028.27 136.695C1028.27 145.418 1026.65 153.042 1023.43 159.566C1020.24 166.09 1015.77 171.166 1010.01 174.795C1004.3 178.423 997.625 180.238 990.002 180.238ZM990.002 168.582C995.793 168.582 1000.56 167.098 1004.3 164.129C1008.03 161.16 1010.8 157.257 1012.6 152.419C1014.39 147.581 1015.29 142.339 1015.29 136.695C1015.29 131.051 1014.39 125.791 1012.6 120.916C1010.8 116.041 1008.03 112.101 1004.3 109.096C1000.56 106.09 995.793 104.588 990.002 104.588C984.211 104.588 979.446 106.09 975.707 109.096C971.969 112.101 969.202 116.041 967.406 120.916C965.61 125.791 964.712 131.051 964.712 136.695C964.712 142.339 965.61 147.581 967.406 152.419C969.202 157.257 971.969 161.16 975.707 164.129C979.446 167.098 984.211 168.582 990.002 168.582ZM1082.38 180.238C1074.46 180.238 1067.64 178.368 1061.93 174.63C1056.21 170.891 1051.81 165.742 1048.73 159.181C1045.65 152.62 1044.11 145.125 1044.11 136.695C1044.11 128.118 1045.69 120.55 1048.84 113.989C1052.03 107.392 1056.47 102.242 1062.15 98.5401C1067.86 94.8016 1074.54 92.9324 1082.16 92.9324C1088.1 92.9324 1093.45 94.0319 1098.21 96.2311C1102.98 98.4302 1106.88 101.509 1109.92 105.467C1112.96 109.426 1114.85 114.044 1115.59 119.322H1102.61C1101.62 115.473 1099.42 112.065 1096.01 109.096C1092.64 106.09 1088.1 104.588 1082.38 104.588C1077.32 104.588 1072.89 105.907 1069.07 108.546C1065.3 111.148 1062.35 114.832 1060.22 119.597C1058.13 124.325 1057.09 129.878 1057.09 136.255C1057.09 142.779 1058.12 148.46 1060.17 153.298C1062.26 158.136 1065.19 161.893 1068.96 164.569C1072.78 167.244 1077.25 168.582 1082.38 168.582C1085.75 168.582 1088.81 167.996 1091.56 166.823C1094.31 165.65 1096.64 163.964 1098.54 161.765C1100.45 159.566 1101.8 156.927 1102.61 153.848H1115.59C1114.85 158.833 1113.04 163.323 1110.14 167.318C1107.28 171.276 1103.49 174.428 1098.76 176.774C1094.07 179.083 1088.61 180.238 1082.38 180.238ZM1168.86 180.238C1161.24 180.238 1154.55 178.423 1148.79 174.795C1143.07 171.166 1138.6 166.09 1135.38 159.566C1132.19 153.042 1130.59 145.418 1130.59 136.695C1130.59 127.898 1132.19 120.22 1135.38 113.659C1138.6 107.098 1143.07 102.004 1148.79 98.3752C1154.55 94.7466 1161.24 92.9324 1168.86 92.9324C1176.48 92.9324 1183.15 94.7466 1188.87 98.3752C1194.63 102.004 1199.1 107.098 1202.29 113.659C1205.51 120.22 1207.12 127.898 1207.12 136.695C1207.12 145.418 1205.51 153.042 1202.29 159.566C1199.1 166.09 1194.63 171.166 1188.87 174.795C1183.15 178.423 1176.48 180.238 1168.86 180.238ZM1168.86 168.582C1174.65 168.582 1179.42 167.098 1183.15 164.129C1186.89 161.16 1189.66 157.257 1191.46 152.419C1193.25 147.581 1194.15 142.339 1194.15 136.695C1194.15 131.051 1193.25 125.791 1191.46 120.916C1189.66 116.041 1186.89 112.101 1183.15 109.096C1179.42 106.09 1174.65 104.588 1168.86 104.588C1163.07 104.588 1158.3 106.09 1154.56 109.096C1150.83 112.101 1148.06 116.041 1146.26 120.916C1144.47 125.791 1143.57 131.051 1143.57 136.695C1143.57 142.339 1144.47 147.581 1146.26 152.419C1148.06 157.257 1150.83 161.16 1154.56 164.129C1158.3 167.098 1163.07 168.582 1168.86 168.582ZM1239.9 65.8831V178.478H1226.93V65.8831H1239.9Z" fill="white"/>
</svg>
